<?xml version="1.0" standalone="no"?>
<!DOCTYPE svg PUBLIC "-//W3C//DTD SVG 20010904//EN"
 "http://www.w3.org/TR/2001/REC-SVG-20010904/DTD/svg10.dtd">
<svg version="1.0" xmlns="http://www.w3.org/2000/svg"
 width="768.000000pt" height="768.000000pt" viewBox="0 0 768.000000 768.000000"
 preserveAspectRatio="xMidYMid meet">

<g transform="translate(0.000000,768.000000) scale(0.100000,-0.100000)"
fill="#000000" stroke="none">
<path d="M3610 7304 c-152 -9 -505 -66 -635 -104 -296 -84 -441 -138 -661
-246 -234 -114 -432 -239 -638 -404 -410 -327 -748 -753 -974 -1230 -192 -406
-294 -813 -324 -1293 -16 -262 7 -621 56 -852 8 -38 20 -97 26 -130 27 -136
121 -436 170 -540 5 -11 19 -42 31 -70 163 -377 405 -730 714 -1041 225 -226
419 -380 665 -529 149 -90 379 -205 510 -255 30 -11 64 -25 75 -30 38 -17 201
-68 310 -98 187 -51 326 -76 565 -102 204 -21 450 -26 598 -10 309 33 427 53
622 104 30 8 75 20 100 26 25 6 52 15 60 19 9 5 30 12 49 16 18 4 44 13 59 21
15 8 35 14 44 14 9 0 20 5 23 10 3 6 13 10 21 10 8 0 34 8 57 19 23 10 58 24
76 32 77 31 331 161 411 209 496 303 863 663 1171 1146 58 92 216 394 248 474
15 39 32 81 51 125 59 142 152 484 180 660 73 467 63 894 -34 1330 -84 381
-221 726 -421 1055 -364 601 -942 1109 -1570 1380 -27 11 -59 25 -70 30 -71
34 -287 108 -390 135 -181 48 -261 64 -480 100 -98 17 -534 28 -695 19z m1900
-2031 c0 -5 -46 -62 -101 -128 -134 -159 -129 -153 -319 -384 l-165 -200
-1378 0 c-758 -1 -1377 3 -1375 7 2 5 135 167 297 360 l294 352 1374 0 c755 0
1373 -3 1373 -7z"/>
</g>
</svg>
